<svg xmlns="http://www.w3.org/2000/svg" width="34.456" height="39.378" viewBox="0 0 34.456 39.378">
  <path id="Icon_awesome-birthday-cake" data-name="Icon awesome-birthday-cake" d="M34.456,29.533c-2.155,0-2.4-2.461-5.73-2.461s-3.6,2.461-5.749,2.461c-2.13,0-2.419-2.461-5.749-2.461-3.295,0-3.632,2.461-5.73,2.461-2.165,0-2.4-2.461-5.749-2.461S2.161,29.533,0,29.533V23.381a3.693,3.693,0,0,1,3.692-3.692H4.922V8.614H9.844V19.689h4.922V8.614h4.922V19.689h4.922V8.614h4.922V19.689h1.231a3.693,3.693,0,0,1,3.692,3.692Zm0,9.844H0V31.994c3.334,0,3.6-2.461,5.749-2.461s2.4,2.461,5.749,2.461c3.3,0,3.631-2.461,5.73-2.461,2.165,0,2.4,2.461,5.749,2.461s3.6-2.461,5.749-2.461c2.114,0,2.4,2.461,5.73,2.461ZM7.383,7.383A2.454,2.454,0,0,1,4.922,4.922C4.922,2.538,7.383,3.153,7.383,0c.923,0,2.461,2.269,2.461,4.307S8.748,7.383,7.383,7.383Zm9.844,0a2.454,2.454,0,0,1-2.461-2.461c0-2.384,2.461-1.769,2.461-4.922.923,0,2.461,2.269,2.461,4.307S18.593,7.383,17.228,7.383Zm9.844,0a2.454,2.454,0,0,1-2.461-2.461c0-2.384,2.461-1.769,2.461-4.922C28,0,29.533,2.269,29.533,4.307S28.437,7.383,27.072,7.383Z"/>
</svg>
